<svg width="210" height="170" viewBox="0 0 210 170" fill="none" xmlns="http://www.w3.org/2000/svg">
<path fill-rule="evenodd" clip-rule="evenodd" d="M73.1547 146.961C113.557 146.961 146.309 114.063 146.309 73.4807C146.309 32.8984 113.557 0 73.1547 0C32.7525 0 0 32.8984 0 73.4807C0 114.063 32.7525 146.961 73.1547 146.961ZM73.1547 120.803C99.1742 120.803 120.267 99.6161 120.267 73.4807C120.267 47.3452 99.1742 26.1582 73.1547 26.1582C47.1351 26.1582 26.0421 47.3452 26.0421 73.4807C26.0421 99.6161 47.1351 120.803 73.1547 120.803Z" fill="#1FBBFF"/>
<path d="M127.942 126.789C121.35 122.28 119.645 113.256 124.135 106.634C128.625 100.013 137.608 98.3007 144.2 102.81L203.686 143.503C210.278 148.013 211.983 157.036 207.493 163.658C203.004 170.28 194.02 171.992 187.428 167.482L127.942 126.789Z" fill="#1FBBFF"/>
</svg>
